<svg id="Layer_1" data-name="Layer 1" xmlns="http://www.w3.org/2000/svg" viewBox="0 0 165.94 174.37"><defs><style>.cls-1{fill:#ffac00;}</style></defs><path class="cls-1" d="M134.72,139l-11-11.74a48.48,48.48,0,0,0,6.81-54.62l.17-.15A26.5,26.5,0,1,0,88.91,42.3H77A26.5,26.5,0,1,0,35.19,72.48l.17.15a48.48,48.48,0,0,0,6.81,54.62L31.22,139s-2.55,2.25-1,4.2a53.91,53.91,0,0,0,4.65,4.72s1.57,1.65,4.57-1.2,10.58-11.32,10.58-11.32l.17-.18c8.48,7.94,19.75,12.08,32.22,12.3v0H83.5v0c12.47-.22,23.74-4.36,32.22-12.3l.17.18s7.58,8.47,10.58,11.32,4.57,1.2,4.57,1.2a53.91,53.91,0,0,0,4.65-4.72C137.27,141.24,134.72,139,134.72,139ZM113.61,38.56a15,15,0,0,1,13.82,10.27c1.72,5.24,1.5,10.33-2.13,14.29l-2-2.27a55.49,55.49,0,0,0-20.18-14.76L100.66,45C103.41,40.35,108.09,38.52,113.61,38.56ZM38.85,48.08A15,15,0,0,1,52.68,37.81c5.51,0,10.19,1.79,12.94,6.46l-2.5,1.07A55.57,55.57,0,0,0,42.94,60.1l-2,2.27C37.35,58.41,37.13,53.32,38.85,48.08ZM83,136.24a41.38,41.38,0,1,1,41.38-41.38A41.38,41.38,0,0,1,83,136.24Z"/><path class="cls-1" d="M76,69.12s-.41-3,2-3,10,0,10,0a1.79,1.79,0,0,1,2,2c0,1.87,0,19.18,0,25a3.89,3.89,0,0,0,1.54,3.09l10.34,7.89s1.74,1.32.67,2.81-6.72,7.43-6.72,7.43-.76.9-2.14-.14c-1-.75-9.71-6.84-14.56-10.23A7.57,7.57,0,0,1,76,97.77Z"/></svg>