<svg id="Layer_1" data-name="Layer 1" xmlns="http://www.w3.org/2000/svg" viewBox="0 0 430.43 285.99"><defs><style>.cls-1{fill:#010101;}</style></defs><path class="cls-1" d="M531.93,408.43a8.49,8.49,0,0,0-7.45-5.14H486c-4.71-16.51-9.18-29.87-13.31-39.75-5.82-13.93-12.94-26.82-25.44-26.82H432.44v-7.17a12.66,12.66,0,0,0-25.32,0v7.17h-175v-7.17a12.66,12.66,0,0,0-25.32,0v7.17H192c-12.5,0-19.61,12.89-25.43,26.82-4.13,9.88-8.61,23.24-13.32,39.75H114.76a8.51,8.51,0,0,0-7.46,5.14c-3.87,11.26-3.86,17.7,0,29a8.51,8.51,0,0,0,7.46,5.15h26.32A51.45,51.45,0,0,0,126,479a14.68,14.68,0,0,0,.14,2l1.2,8.88a14.64,14.64,0,0,0,3.53,7.71v20.19h-1.17a5,5,0,0,0-5,5V582.6A20.31,20.31,0,0,0,145,602.89h40.57a20.31,20.31,0,0,0,20.29-20.29V556.89H435.5V582.6a20.32,20.32,0,0,0,20.29,20.29h40.58a20.31,20.31,0,0,0,20.29-20.29V522.78a5,5,0,0,0-5-5h-1.17V499.56a14.7,14.7,0,0,0,5.61-9.68l1.2-8.88a14.68,14.68,0,0,0,.14-2,51.49,51.49,0,0,0-15.12-36.48h22.16a8.47,8.47,0,0,0,7.45-5.14C535.8,426.13,535.8,419.69,531.93,408.43ZM174.77,420.31c11.14-41.23,18.08-54.35,20.75-58.26H443.71c2.68,3.91,9.62,17,20.76,58.26.64,2.38,1.87,7.23,1.87,7.23l-293.51.06Q173.78,424,174.77,420.31ZM141.34,545.72v-13h35.49l3.75,13Zm-.51-27.94V493.2l69,4.45,6.73,20.13Zm273.4,0H227.09L222,502.64H419.29ZM500,545.72H460.74l3.75-13H500Zm.51-27.94H424.77l6.73-20.13,69-4.45Z" transform="translate(-104.4 -316.9)"/></svg>