<svg id="Layer_1" data-name="Layer 1" xmlns="http://www.w3.org/2000/svg" viewBox="0 0 94.05 80.31"><defs><style>.cls-1{fill:#f1a302;}</style></defs><path class="cls-1" d="M36.35,72.15A18.08,18.08,0,0,1,20.28,62c-3.51-6.79-3.24-13.89,2-19.55Q36.9,26.71,52.46,11.92c5.73-5.45,14-4.76,19.38.63a13.54,13.54,0,0,1,.4,19.34C64.58,40.19,56.55,48.18,48.4,56c-4.52,4.34-10.33,4.11-14.34.15s-4.14-9.64.2-14.27c5.91-6.31,12.16-12.29,18.25-18.43C54,22,55.3,21.19,57.14,23c2.09,2,1,3.42-.57,5Q47.74,36.77,39,45.65c-2.45,2.48-2.85,4.94.45,7,2.1,1.27,3.81.1,5.31-1.39,7.52-7.53,15.13-15,22.52-22.63,3.62-3.75,3.56-8.29.38-11.63s-8.17-3.68-12,.08c-9.53,9.28-19,18.64-28.18,28.26-4.79,5-4.31,12.36.41,17.11a12.08,12.08,0,0,0,17.46.11c7.45-7.13,14.58-14.58,21.91-21.84,1.63-1.61,3.11-4.54,6-1.57,2.69,2.74,0,4.12-1.54,5.64-6.88,7-13.83,13.92-20.75,20.88A20.39,20.39,0,0,1,36.35,72.15Z"/></svg>