<svg id="Layer_1" data-name="Layer 1" xmlns="http://www.w3.org/2000/svg" viewBox="0 0 165.94 174.37"><defs><style>.cls-1{fill:#ffac00;}</style></defs><path class="cls-1" d="M156.88,33.9l-1.55-2.06h0s-.12-.16-.49-.61c-.58-.77-.77-1-.77-1h0l-1.64-2a3.79,3.79,0,0,0-5.1-1.12l-54,42.15s-5.47-7-7.95-10.13-4.8-.67-4.8-.67L67.07,76.61C15.81,67.68,8.73,138,8.1,145.85l0,.37.37.06c7.81,1.25,77.77,11,81.24-40.91l20.83-8.82s3-1.67.48-4.82L103,81.61l53.73-42.49A3.78,3.78,0,0,0,156.88,33.9ZM63.62,128.81c-9.82,6.45-41.73,6.75-41.73,6.75s1.68-16.88,15.18-23.29a10.54,10.54,0,0,0-7.59.45s2-12.56,12.54-19.54S64.9,87.93,64.9,87.93l13.2,16.8S73.45,122.36,63.62,128.81ZM85.81,95.45,81,89l-4.94-6.28,7.2-7.8,5.63,7.19,6.31,8.35Z"/></svg>