<svg id="Layer_1" data-name="Layer 1" xmlns="http://www.w3.org/2000/svg" viewBox="0 0 94.05 80.31"><defs><style>.cls-1,.cls-2{fill:#ffac00;}.cls-2{stroke:#ffac00;stroke-miterlimit:10;stroke-width:0.28px;}</style></defs><path class="cls-1" d="M43.77,22.82s-.2-1.89,1-1.87,4.87,0,4.87,0,1-.17,1,1.24c0,1.17,0,12,0,15.64a2.71,2.71,0,0,0,.75,1.93l7.29,7.13A1.54,1.54,0,0,1,59,48.65c-.52.93-3.28,4.64-3.28,4.64s-.37.56-1.05-.09c-.48-.47-7-6.48-9.35-8.6a5.21,5.21,0,0,1-1.58-3.87Z"/><path class="cls-2" d="M47,8.65a31.51,31.51,0,1,0,31.5,31.5A31.5,31.5,0,0,0,47,8.65Zm0,56.42A24.92,24.92,0,1,1,71.94,40.15,24.91,24.91,0,0,1,47,65.07Z"/></svg>