<svg id="Layer_1" data-name="Layer 1" xmlns="http://www.w3.org/2000/svg" viewBox="0 0 178.53 190.71"><defs><style>.cls-1{fill:#121212;}.cls-2{fill:none;stroke:#121212;stroke-miterlimit:10;}</style></defs><rect class="cls-1" x="34.95" y="6.08" width="11.02" height="13.91"/><polygon class="cls-1" points="33.08 28.99 26.89 36.04 54 36.04 47.96 28.99 33.08 28.99"/><rect class="cls-1" x="21.82" y="45.15" width="37.34" height="19.8"/><rect class="cls-1" x="5.96" y="72.99" width="23.96" height="5.01"/><rect class="cls-1" x="89.89" y="72.99" width="42.98" height="5.01"/><rect class="cls-1" x="125.92" y="6.04" width="4.05" height="3.94"/><path class="cls-1" d="M347.62,357.66h-18s-17.4.56-18.07,16.91H334.8l12.82-10.26Z" transform="translate(-230.74 -351.62)"/><rect class="cls-1" x="89.95" y="32.03" width="11.01" height="3.98"/><polygon class="cls-1" points="87 45.04 79.99 51.96 79.99 64.95 116.89 64.95 116.89 57.98 104.06 45.04 87 45.04"/><path class="cls-2" d="M260.66,437.72H246.6l12.6,91.12h66.15s-1.5-20,0-29.85,11.85-15.15,22-15.37l5.7-45.9H320.62v6.75s13.28,2.53,21.6,11.36-3.37,17.55-3.37,17.55-6,3.26-10.86.45-7.42-4.22-7.42-4.22l.17,29s-1,10.85-10.17,10.85-38.62.3-38.62.3-11.4-2.25-12.15-11.47S260.66,437.72,260.66,437.72Z" transform="translate(-230.74 -351.62)"/><path class="cls-1" d="M268.65,424.61l.11,71.16s.06,4.84,4.89,4.89V470.57l8.05-.06v27.65a2.5,2.5,0,0,0,2.5,2.5h0a2.5,2.5,0,0,0,2.5-2.5V470.51l8.05.12v27.59a2.44,2.44,0,0,0,2.44,2.44h0a2.44,2.44,0,0,0,2.45-2.44V470.46h8.05v30.2s4.05-.17,4.05-4V460.78s-.9-5.85,4.95-3.15,16,8.16,16,8.16a1.94,1.94,0,0,0,2.94-1c1-2.25.51-3.32-2.42-4.79s-21.48-11.41-21.48-11.41v-24Z" transform="translate(-230.74 -351.62)"/><path class="cls-1" d="M409.2,500.57s0-10.28-12.75-14.25a25.64,25.64,0,0,0-22.13,3.22s-6.52,3.68-12.37,0-8.33-2.62-8.33-2.62l7.05-51.3,9.08,0V418.63H353.66v-11l-16-17.1,0-10.93,6.39-5,9.71,16.87,3.27-2.1-9.57-16.87,5.37-4.71,14-.13v-16H328.8s-24.94,0-24.1,29h10v11l-10,9.08v18h-9v-28l-13-15.19V351.62h-23.1v23.7l-12.9,15.29v29h-16v16h10l12.82,99.9h78s2.85,6.73,15.75,6.43,14.47-3.45,14.47-3.45,4-3.45,11.7.07,14.7,4.3,19.95,3.39,15.68-5,15.83-15S409.2,500.57,409.2,500.57Zm-55.54-145h10.2v9.11h-10.2Zm14.55,139.12a24.82,24.82,0,0,0,12.45-3.24s5-2.78,14.25-1.67,10.91,15.92,9.35,21.19S396,521,389,519.75s-12.87-4.94-17.9-5.08-8.52-.82-12.83,1.74a23.72,23.72,0,0,1-16.11,2.77c-5.63-1.14-10.31-5.46-10.55-14,0,0-.36-9.12,5.33-12.54s10.61-3.46,16.48-1.76S360.42,494.79,368.21,494.64ZM366.6,422.7v9.06H318.55V422.7Zm-58.28-45.36s1.2-21.82,20.55-21.82h21v10.27l-14.32,11.55Zm26.48,3.27v10.05H317.51V380.61ZM308.62,402l8.63-8.37H335.1l14.77,14.67v10.33H308.62Zm6.15,20.68-.07,23.94s19.2,10.35,21.82,12,3.23,3.15,1.05,7.43-5.32,2.32-5.32,2.32-10.35-5.1-14.18-7.12-3.3,1.37-3.3,1.37.08,28.85,0,34.85-9.3,5.14-9.3,5.14v-29h-3.75v24.49a4.5,4.5,0,0,1-9,0V473.72h-4v24.41a4.51,4.51,0,0,1-4.5,4.5h-.08a4.51,4.51,0,0,1-4.5-4.5V473.66h-4.12v28.93c-8.25.53-8.93-5.1-8.93-5.1V422.7Zm-51.22-67.18H278.7v18.37H263.55Zm-.9,22.16h17.16l10.09,12.94H252.56Zm29.1,16v25l-41.05,0,0-25Zm-57.19,38.11V422.7h28.29v9.06ZM257,531.62l-12.83-96h18.73s-.16,50.14,0,60.71,9.06,10,9.06,10,33.64.12,38.81,0,7.88-9.11,7.88-9.11L318.45,466l9.6,4.65s6.45,5.1,12.3-2.4-1.5-12-1.5-12L318.45,445v-9.37h38.1l-7.05,50.92c-21.75.9-22.05,12-22.65,23.4a87.19,87.19,0,0,0,1.8,21.68Zm143.89,3.64c-4.28,4.16-13.5,3.82-19.47,2.62s-5.06-4.09-13.61-4.09-8.21,3.27-15.75,3.83-12.49.56-17.66-3.94-2.7-17.27-2.7-17.27c7.42,8.26,14.29,5.91,19.57,6a14.78,14.78,0,0,0,9.34-2.47c1.91-1.13,11.25-2.82,15.19,0s13.05,2.47,19.12,2.13,9.9-5.68,9.9-5.68C404.8,527.5,405.11,531.09,400.84,535.26Z" transform="translate(-230.74 -351.62)"/><path class="cls-1" d="M333.89,521.76s-.55,13.16,8.45,13.38,13.05.79,17.66-2.92,13.5-1.8,16.54.34,14.51,6,20.47,1.23,5.54-12.48,5.54-12.48a18.2,18.2,0,0,1-12.18,4.61c-7.2-.23-13.27-1-15.86-3.38s-11.14-2-13.16.45-12.71,3.6-16.43,2.82S333.89,521.76,333.89,521.76Z" transform="translate(-230.74 -351.62)"/><path class="cls-1" d="M393.3,492.53c-8.66-.87-13.39,1.33-13.39,1.33a22.39,22.39,0,0,1-12,3.6c-7.31.11-8-2.7-13.5-4s-10.12-1.32-15.47,1.38-5,9.9-5,9.9c.22,6.79,4.61,10.2,9.9,11.1s10.46-.67,14.51-2.7,8.1-1.46,12.83-1.35,10.12,3.49,16.65,4.5,12.82-2.81,14.28-7S402,493.41,393.3,492.53Zm-44.12,15.39h-6.94v-6.73h6.94Zm12.45-3.37h-6.94v-6.73h6.94Zm19.8,3.37h-6.94v-6.73h6.94Zm12.9-3.37h-6.94v-6.73h6.94Z" transform="translate(-230.74 -351.62)"/></svg>